<?xml version="1.0" encoding="UTF-8" standalone="no"?>
<!-- Created with Inkscape (http://www.inkscape.org/) -->

<svg
   xmlns:dc="http://purl.org/dc/elements/1.1/"
   xmlns:cc="http://creativecommons.org/ns#"
   xmlns:rdf="http://www.w3.org/1999/02/22-rdf-syntax-ns#"
   xmlns:svg="http://www.w3.org/2000/svg"
   xmlns="http://www.w3.org/2000/svg"
   xmlns:sodipodi="http://sodipodi.sourceforge.net/DTD/sodipodi-0.dtd"
   xmlns:inkscape="http://www.inkscape.org/namespaces/inkscape"
   width="1704.135"
   height="755.25641"
   id="svg3056"
   version="1.1"
   inkscape:version="0.48.3.1 r9886"
   sodipodi:docname="soixante5.svg">
  <defs
     id="defs3058" />
  <sodipodi:namedview
     id="base"
     pagecolor="#ffffff"
     bordercolor="#666666"
     borderopacity="1.0"
     inkscape:pageopacity="0.0"
     inkscape:pageshadow="2"
     inkscape:zoom="1.06"
     inkscape:cx="836.60938"
     inkscape:cy="391.7022"
     inkscape:document-units="px"
     inkscape:current-layer="layer1"
     showgrid="false"
     inkscape:window-width="1920"
     inkscape:window-height="1055"
     inkscape:window-x="1600"
     inkscape:window-y="0"
     inkscape:window-maximized="1"
     fit-margin-top="0"
     fit-margin-left="-0.3"
     fit-margin-right="0"
     fit-margin-bottom="0" />
  <metadata
     id="metadata3061">
    <rdf:RDF>
      <cc:Work
         rdf:about="">
        <dc:format>image/svg+xml</dc:format>
        <dc:type
           rdf:resource="http://purl.org/dc/dcmitype/StillImage" />
      </cc:Work>
    </rdf:RDF>
  </metadata>
  <g
     inkscape:label="Layer 1"
     inkscape:groupmode="layer"
     id="layer1"
     transform="translate(-0.29999,-2.902418e-4)">
    <path
       inkscape:connector-curvature="0"
       style="fill:#7b7979;fill-opacity:1;fill-rule:nonzero;stroke:none;display:inline"
       id="path22"
       d="m 149.21602,333.84075 77.098,0 1.44624,-1.43859 0,-92.10659 -1.43256,-1.43256 -60.07637,0 -58.68488,-58.68399 0,-58.07288 58.68488,-58.683102 58.06598,0 59.38919,59.390842 3.43865,-3.42244 -0.013,0 -60.80462,-60.806311 -62.09015,0 -61.50899,61.503791 0,62.10301 61.50899,61.51242 58.66773,0 0,85.2788 -71.68221,0 -90.126978,-90.12014 -61.08502845,0 0,4.84134 59.07205045,0 90.136336,90.1364" />
    <path
       inkscape:connector-curvature="0"
       style="fill:#7b7979;fill-opacity:1;fill-rule:nonzero;stroke:none;display:inline"
       id="path24"
       d="m 149.21943,348.86302 77.12447,0 16.44122,-16.45745 0,-92.14337 -16.44122,-16.42406 -60.0832,0 -43.66254,-43.6557 0,-58.06686 43.64627,-43.65742 58.07971,0 59.38236,59.384 3.43865,-3.42243 -0.0213,0 -60.80125,-60.799475 -62.08341,0 -46.48405,46.478925 0,62.08338 46.48405,46.50031 60.08328,0 13.59573,13.59916 0,88.12002 -13.57863,13.60254 -73.11828,0 -90.139757,-90.12355 -61.081543,0 0,4.84213 59.081419,0 90.136341,90.13985" />
    <path
       inkscape:connector-curvature="0"
       style="fill:#7b7979;fill-opacity:1;fill-rule:nonzero;stroke:none;display:inline"
       id="path26"
       d="m 149.21943,363.88788 77.11769,0 31.47287,-31.4695 0,-92.14243 -31.48571,-31.47293 -60.07985,0 -28.62483,-28.624 0,-58.0763 28.62483,-28.62653 58.07971,0 59.38834,59.37716 3.42241,-3.42236 -60.79777,-60.801255 -62.09282,0 -31.46944,31.455765 0,62.11327 31.46944,31.4524 60.07984,0 28.62059,28.62401 0,88.12343 -28.62059,28.64451 -73.10116,0 -90.146599,-90.14323 -61.07477273,0 0,4.84822 59.07806673,0 90.139755,90.13977" />
    <path
       inkscape:connector-curvature="0"
       style="fill:#7b7979;fill-opacity:1;fill-rule:nonzero;stroke:none;display:inline"
       id="path28"
       d="m 149.21602,378.89566 77.11851,0 46.48666,-46.48326 0,-92.13051 -46.48666,-46.48322 -60.0901,0 -13.60598,-13.60598 0,-58.08997 13.60598,-13.60597 58.08656,0 59.37551,59.38831 3.43865,-3.42244 -0.013,0 -60.79435,-60.81055 -62.09023,0 -16.45053,16.45053 0,62.08933 16.43002,16.45148 60.1072,0 43.64203,43.63862 0,88.12685 -43.64203,43.64202 -73.11136,0 -90.130395,-90.12608 -61.08756053,0 0,4.84126 59.07115953,0 90.143176,90.12958" />
    <path
       inkscape:connector-curvature="0"
       style="fill:#7b7979;fill-opacity:1;fill-rule:nonzero;stroke:none;display:inline"
       id="path30"
       d="m 167.67022,178.76696 0,-55.2556 56.66077,0 59.38149,59.39856 3.42584,-3.42243 -60.80379,-60.80379 -62.09365,0 -1.41547,1.41548 c -0.003,0.003 -0.003,62.09959 -0.003,62.09959 l 1.41882,1.41547 60.09011,0 58.66429,58.66094 0,88.12687 -58.66429,58.68398 -73.11136,0 -90.130394,-90.15008 -61.08762721,0 0,4.85157 59.08490521,0 90.129506,90.12698 77.11851,0 61.50808,-61.49272 0,-92.14329 -61.50808,-61.51153 -58.6643,0" />
    <path
       inkscape:connector-curvature="0"
       style="fill:#7b7979;fill-opacity:1;fill-rule:nonzero;stroke:none;display:inline"
       id="path32"
       d="m 437.72204,329.78744 -55.24187,0 0,-55.25131 55.24187,0 0,55.25131 z m 360.5284,3.41224 0,8.17055 -46.72939,-46.71743 4.09427,-4.09003 42.63512,42.63691 z m 0,45.07883 0,8.23642 -69.28637,-69.30517 4.11992,-4.11992 65.16645,65.18867 z m 0,-15.02232 0,8.17405 -61.73887,-61.76624 4.06862,-4.07295 57.67025,57.66514 z m 0,-6.844 -54.24269,-54.24698 4.08574,-4.08404 50.15695,50.15355 0,8.17747 z m 64.92711,33.45849 0,-55.24535 55.25131,0 0,55.24535 -55.25131,0 z m 600.90915,-235.50441 51.7639,0 -51.7639,51.77928 0,-51.77928 z m -1022.94907,240.35258 61.50893,-61.5124 0,-118.75694 25.19903,0 0,178.84019 62.51328,62.50727 135.17765,-135.16135 74.79952,74.81743 0.0342,-0.0342 59.38831,59.37547 58.67031,0 0,0.0213 63.49968,0 121.60586,-121.60927 0,-118.76718 55.2257,0 0.013,180.28301 63.5082,0 60.0977,-60.09694 60.0807,0 59.0806,-59.06431 120.1869,120.15276 61.7988,-61.79611 -3.4191,-3.42843 -0.013,0 -58.3626,58.37284 -116.7423,-116.74059 59.0977,-59.08491 0,-0.013 61.0636,-61.07134 -2.436,-2.43427 -62.0723,0 -1.4189,1.41883 0,60.06357 -61.1149,61.12091 0,0.004 -57.6617,57.65918 -60.0721,0 -60.0978,60.09002 -56.6616,0 0.013,-178.84359 -1.4189,-1.41547 -63.5168,0 0,121.58875 -118.78522,118.76375 -56.64452,0 0,-120.18346 c 0,0.004 -63.49968,0.004 -63.49968,0.004 l -1.42743,1.42223 0,62.09363 1.42743,1.42232 58.66177,0 0,10.16384 -56.66166,0 -13.60768,-13.58968 0,-58.08997 13.60768,-13.60593 71.68822,0 0,120.18951 48.47311,0 106.59638,-106.58358 0,-133.77577 71.6712,0 13.6076,13.60591 0,166.65741 48.4817,0 60.1148,-60.09348 60.0636,0 106.5964,-106.58016 0,-60.07299 13.6077,-13.61282 58.0463,0 12.5991,12.59737 -120.1613,120.18614 108.5794,108.58795 61.7987,-61.8133 -3.419,-3.41557 -58.3797,58.37375 -101.7243,-101.73283 120.1698,-120.16904 -17.4455,-17.46263 -62.0893,0 -16.4455,16.4506 0,60.07641 -103.7329,103.73889 -60.0892,0.0129 -60.0978,60.07297 -41.618,0 0,-163.81186 -16.4625,-16.4472 -78.5263,0 0,136.61704 -103.75862,103.73208 -41.61796,0 0,-120.16297 -78.54335,0 -16.43692,16.43089 0,62.10301 16.43692,16.43008 58.67888,0 0,10.17761 -56.66166,0 -28.63425,-28.61465 0,-58.08998 28.63425,-28.63426 86.68917,0 0,120.18698 33.47216,0 91.56988,-91.55272 0,-148.80411 86.6806,0 28.6342,28.63426 0,151.63253 33.4722,0 60.1148,-60.09694 60.0636,0.0129 91.5527,-91.56892 0,-60.073 28.6514,-28.63768 58.0634,0 27.6256,27.63933 -120.1869,120.16905 93.5614,93.55878 61.7987,-61.79529 -3.419,-3.42929 -58.3797,58.36692 -86.7148,-86.70112 120.1869,-120.18615 -32.4721,-32.45412 -62.1064,0 -31.4464,31.45919 0,60.09352 -88.732,88.71062 -60.0721,0 -60.0978,60.0764 -26.6085,0 0,-148.78702 -31.472,-31.45926 -93.5528,0 0,151.62913 -88.71502,88.71067 -26.62558,0 0,-120.16992 -93.55283,0 -31.46348,31.45925 0,62.103 31.46348,31.45577 58.67888,0 0,10.17328 -56.66166,0 -43.66083,-43.63601 0,-58.07288 43.66083,-43.65912 101.71573,0 0,120.16906 18.4456,0 76.55178,-76.52704 0,-163.82899 101.6987,0 43.6693,43.65911 0,136.61708 18.4371,0 60.0977,-60.08922 60.0807,0 76.5261,-76.54405 0,-60.073 43.6609,-43.64969 58.0634,0 42.6693,42.65134 -120.1869,120.16905 78.5348,78.53391 61.7987,-61.80213 -3.419,-3.42588 -58.3797,58.37375 -71.6883,-71.67965 120.2041,-120.18615 -47.5158,-47.48582 -62.1064,0 -46.473,46.49089 0,60.09352 -73.7054,73.68574 -60.0721,0 -60.0978,60.0901 -11.5819,0 0,-133.77584 -46.4986,-46.48755 -108.5794,0 0,166.65742 -73.68842,73.68573 -11.58192,0 0,-120.16986 -108.59649,0 -46.47296,46.48413 0,62.103 46.47296,46.48665 58.67888,0 0,10.15702 -56.65309,0 -58.67033,-58.66692 0,-58.07369 58.65323,-58.67031 116.75084,0 0,123.61882 64.9443,-64.94851 0,-178.84702 116.7423,0 58.6617,58.66095 0,125.03766 63.5253,-63.5219 60.0807,0 61.4995,-61.51576 0,-60.07984 58.7046,-58.669423 58.0463,0 57.6617,57.677913 -120.1528,120.16905 63.5083,63.50562 61.7987,-61.79872 -3.419,-3.40957 -58.3797,58.37025 -56.6788,-56.66758 120.1955,-120.16905 -62.5167,-62.515822 -62.0893,0 -61.5167,61.500372 0,60.09694 -55.2085,55.20856 0,-113.30538 59.3456,-59.363482 -3.4191,-3.436112 -55.9265,55.921424 0,-8.14669 44.3617,-44.338622 -3.4447,-3.436112 -40.917,40.899984 0,-8.16379 29.318,-29.308629 -3.4275,-3.419016 -25.8905,25.873405 0,-8.17063 14.2915,-14.275212 -3.419,-3.436112 -10.8725,10.866454 0,-69.229058 -4.855,0 0,237.913058 -10.1716,0.006 0,-237.928435 -4.855,0 0,237.928435 -10.1716,0.002 0,-237.922503 -4.855,0 0,237.922503 -10.163,0.004 0,-237.934454 -4.8635,0 0,237.934454 -10.1631,0.004 0,-237.937878 -4.8464,0 0,239.350748 -55.2684,55.23852 0,-115.32171 -61.5081,-61.51924 -123.5889,0 0,181.68911 -55.25991,55.24445 0,-116.744 -123.58887,0 -59.08914,59.07547 -41.63508,-41.63937 73.39774,-73.39515 -3.41901,-3.42584 -238.65417,238.62933 -57.66259,-57.65911 0,-181.672 -33.46192,0 -60.10628,60.08667 -60.07385,0 -1.42228,1.42915 0,62.07648 1.41975,1.41545 62.08934,0 1.43259,-1.43166 0,-60.07725 10.17327,-10.1767 0,68.26066 -13.59913,13.60256 -58.08998,0 -13.60256,-13.60256 0,-58.07369 13.60256,-13.60258 60.09352,0 60.07976,-60.09009 41.6428,0 0,193.86253 47.49185,47.49527 227.03975,-227.03716 -3.41047,-3.42593 -0.013,0 -223.61219,223.6122 -42.64368,-42.64794 0,-196.70624 -48.49793,0 -60.07634,60.0892 -60.09351,0 -16.44718,16.44718 0,62.07997 16.44718,16.448 62.09705,0 16.43006,-16.43097 0,-75.11489 10.18096,-10.17672 0,83.2778 -28.62141,28.62148 -58.08997,0 -28.61715,-28.62148 0,-58.09586 28.63425,-28.61461 60.07984,0 60.08319,-60.0832 56.66765,0 0,208.87707 32.46699,32.48407 212.02174,-212.01913 -3.42758,-3.42593 -208.59416,208.57367 -27.6154,-27.61282 0,-211.72174 -63.52621,0 -60.08319,60.07985 -60.09262,0 -31.4661,31.47888 0,62.08331 31.4661,31.46608 62.09959,0 31.4626,-31.46608 0,-90.13293 10.1767,-10.17329 0,98.31293 -43.64969,43.62924 -58.06262,0 -43.66255,-43.64545 0,-58.08396 43.64204,-43.64545 60.08669,0 60.08317,-60.06958 71.69936,-0.0137 0,223.91899 17.43529,17.43871 197.0191,-196.99427 -3.42758,-3.41899 -193.59152,193.56496 -12.59051,-12.6102 0,-226.74395 -78.54426,0 -60.08661,60.08318 -60.08324,0.013 -46.4935,46.4738 0,62.0894 46.4935,46.48748 62.0868,0 46.49088,-46.48748 0,-105.14419 10.16987,-10.17416 0,113.32156 -58.66771,58.66779 -58.06947,0 -58.67114,-58.66779 0,-58.08648 58.67114,-58.6669 60.07299,0 60.10371,-60.0935 86.69346,0 0,238.93369 2.42409,2.42409 181.9925,-181.9694 -3.41901,-3.42501 -43.36166,43.35138 -43.34546,-43.36508 -3.44206,3.43871 43.35996,43.35564 -4.07719,4.07718 -50.86559,-50.86128 -3.43952,3.41902 50.87496,50.87072 -4.08313,4.08744 c -25.96668,-25.95518 -58.38067,-58.38878 -58.38067,-58.38878 l -3.42243,3.4387 c 0,0 32.41739,32.42078 58.37374,58.37712 l -4.08401,4.08059 -65.89216,-65.89641 -3.42245,3.4387 65.88616,65.887 -4.1302,4.12332 -71.97963,-72.00023 -3.41901,3.43959 71.98307,71.98308 -99.28563,99.2677 0,-236.9335 -93.55544,0 -60.09002,60.09003 -60.07643,0 -61.5089,61.51234 0,62.09276 61.49613,61.51239 62.09274,0" />
    <path
       inkscape:connector-curvature="0"
       style="fill:#7b7979;fill-opacity:1;fill-rule:nonzero;stroke:none;display:inline"
       id="path34"
       d="M 592.07183,3.4364015 588.65622,2.902418e-4 528.56271,60.098046 l 3.43274,3.427563 60.07638,-60.0892075" />
    <path
       inkscape:connector-curvature="0"
       style="fill:#7b7979;fill-opacity:1;fill-rule:nonzero;stroke:none;display:inline"
       id="path36"
       d="m 592.07183,18.462978 -3.41561,-3.436112 -60.09351,60.097755 3.43274,3.410468 60.07638,-60.072111" />
    <path
       inkscape:connector-curvature="0"
       style="fill:#7b7979;fill-opacity:1;fill-rule:nonzero;stroke:none;display:inline"
       id="path38"
       d="m 592.07183,33.472456 -3.41561,-3.419014 -60.09351,60.080659 3.43274,3.427563 60.07638,-60.089208" />
    <path
       inkscape:connector-curvature="0"
       style="fill:#7b7979;fill-opacity:1;fill-rule:nonzero;stroke:none;display:inline"
       id="path40"
       d="m 592.07183,48.499034 -3.41561,-3.427563 -60.09351,60.085789 3.43274,3.43611 60.07638,-60.094336" />
    <path
       inkscape:connector-curvature="0"
       style="fill:#7b7979;fill-opacity:1;fill-rule:nonzero;stroke:none;display:inline"
       id="path42"
       d="m 592.07183,63.525609 -3.41561,-3.427563 -60.09351,60.087494 3.43274,3.43269 60.07638,-60.092621" />
    <path
       inkscape:connector-curvature="0"
       style="fill:#7b7979;fill-opacity:1;fill-rule:nonzero;stroke:none;display:inline"
       id="path44"
       d="m 860.76715,570.14002 -62.51671,0 0,120.15018 -58.68739,0.0213 -60.06872,60.07385 -56.65822,0 0,-123.59574 -123.61541,123.59574 -58.06597,0 -58.684,-58.68147 0,-58.05318 58.684,-58.68058 59.07116,0.013 0,-4.84816 -61.08495,0 -61.50901,61.48247 0,62.097 61.50901,61.54228 62.09356,0 116.74744,-116.76796 0,116.76796 63.52189,0 60.07642,-60.11397 61.5252,0 0,-120.17589 57.6617,0.013 0,-4.84816" />
    <path
       inkscape:connector-curvature="0"
       style="fill:#7b7979;fill-opacity:1;fill-rule:nonzero;stroke:none;display:inline"
       id="path46"
       d="m 681.50041,740.23013 60.07984,-60.11665 46.49862,0.013 0,-120.16643 72.69684,0 0,-4.85161 -77.55184,0 0,120.15367 -43.65229,0.013 -60.08408,60.1037 -41.64279,0 0.013,-120.18696 -18.45757,0 -120.18694,120.18696 -58.06941,0 -43.6523,-43.67623 0,-58.06938 43.6523,-43.65659 59.09853,0.013 0,-4.85157 -61.11232,0 -46.4773,46.47726 0,62.097 46.4773,46.51065 62.097,0 120.18614,-120.1836 11.58956,0 0,120.1836 48.49363,0" />
    <path
       inkscape:connector-curvature="0"
       style="fill:#7b7979;fill-opacity:1;fill-rule:nonzero;stroke:none;display:inline"
       id="path48"
       d="m 500.23957,600.18037 0,-0.013 -61.0918,0 -31.47204,31.47888 0,62.07648 31.47204,31.48572 62.097,0 120.1793,-120.19375 26.60424,0 0,120.19375 33.46273,0 60.10631,-60.11651 31.47205,0.013 -0.0129,-120.17671 87.71486,0 0,-4.83106 -92.56132,-0.0213 0,120.1793 -28.61718,0 -60.08832,60.0832 -26.62386,0 0,-120.17243 -33.46197,0 -120.18006,120.17243 -58.0934,0 -28.61374,-28.61035 0,-58.08394 28.61374,-28.63077 59.09851,0 0,-4.83106" />
    <path
       inkscape:connector-curvature="0"
       style="fill:#7b7979;fill-opacity:1;fill-rule:nonzero;stroke:none;display:inline"
       id="path50"
       d="m 441.14106,620.03031 59.08483,0.013 0,-4.85159 -61.09439,0 -16.42406,16.42755 0,62.10303 16.42406,16.45399 62.10307,0 120.18265,-120.19982 41.62653,0 0.0129,120.19982 18.43112,0 60.09774,-60.0892 16.43692,0 0,-120.18696 102.74143,0 0,-4.84816 -107.57934,0 0,120.18355 -13.61623,0 -60.07121,60.07294 -11.60587,0 0,-120.16646 -48.48334,0 -120.1904,120.18696 -58.0797,0 -13.59916,-13.61623 0,-58.06344 13.59916,-13.62219" />
    <path
       inkscape:connector-curvature="0"
       style="fill:#7b7979;fill-opacity:1;fill-rule:nonzero;stroke:none;display:inline"
       id="path52"
       d="m 860.77571,510.04739 -122.62301,-0.013 0,121.59218 -55.22992,55.25211 0,-116.7611 -63.52195,0 -120.18355,120.18356 -56.66077,0 0,-55.23163 57.68306,0 0,-4.85158 -61.10207,0 -1.41546,1.40864 0,62.1235 1.40946,1.40182 62.09957,0 120.17932,-120.18609 56.66164,0 0,123.59914 64.93566,-64.90836 0,-118.77402 117.76802,0 0,-4.83106" />
    <path
       inkscape:connector-curvature="0"
       style="fill:#7b7979;fill-opacity:1;fill-rule:nonzero;stroke:none;display:inline"
       id="path54"
       d="m 1053.6168,512.45779 0,121.17851 46.4986,46.48322 62.0808,0 46.5157,-46.48322 0,-121.17851 -4.8465,0 -0.013,119.16468 -43.6522,43.65572 -58.0806,0 -43.6522,-43.65572 0,-119.16468 -4.8465,0" />
    <path
       inkscape:connector-curvature="0"
       style="fill:#7b7979;fill-opacity:1;fill-rule:nonzero;stroke:none;display:inline"
       id="path56"
       d="m 1068.6433,512.46806 0,121.16824 31.4721,31.45836 62.0808,0 31.4891,-31.44217 0,-121.18443 -4.855,0 0,119.17493 -28.6514,28.61034 -58.0634,0 -28.6343,-28.63769 0.013,-119.14758 -4.855,0" />
    <path
       inkscape:connector-curvature="0"
       style="fill:#7b7979;fill-opacity:1;fill-rule:nonzero;stroke:none;display:inline"
       id="path58"
       d="m 1083.6699,512.46806 0,121.17418 16.4284,16.44805 62.0979,0 16.4625,-16.44805 0,-121.17418 -4.8379,0 -0.013,119.16468 -13.6248,13.61621 -58.0634,0 -13.6077,-13.61621 0,-119.16468 -4.8379,0" />
    <path
       inkscape:connector-curvature="0"
       style="fill:#7b7979;fill-opacity:1;fill-rule:nonzero;stroke:none;display:inline"
       id="path60"
       d="m 1098.7136,512.46806 -0.013,121.18443 1.4018,1.41294 62.0808,0 1.436,-1.44623 0,-121.15114 -4.8379,0 0,117.74578 -55.2428,0 0.021,-117.74578 -4.8379,0" />
    <path
       inkscape:connector-curvature="0"
       style="fill:#7b7979;fill-opacity:1;fill-rule:nonzero;stroke:none;display:inline"
       id="path62"
       d="m 1699.5714,691.70567 -58.6617,58.66779 -118.1954,0 -60.0636,-60.06951 -178.8487,0 0,-123.6291 -60.0807,60.09945 0,-8.16288 58.6447,-58.65747 11.5991,0 0.013,120.1758 166.6429,0 60.1063,60.09354 122.187,0 46.473,-46.47728 0,-62.11327 -47.4816,-47.49528 -106.1433,106.15274 -8.1458,0 114.2891,-114.33361 57.6617,57.6857 0,58.06338 z m -111.8616,-1.41547 51.781,-51.78955 0,51.78955 -51.781,0 z m -363.9885,-101.70198 58.6618,-58.68489 41.6351,0 0,120.19292 136.6068,0 60.1063,60.08324 122.1871,0 16.4369,-16.44376 0,-62.11326 -17.4455,-17.44554 -76.0902,76.11327 -8.1459,0 84.2361,-84.26677 27.6171,27.61881 0,58.07376 -28.6172,28.6205 -118.1783,0 -60.0807,-60.08317 -148.8041,0 0,-120.16646 -33.4722,0 -56.6531,56.64797 0,-8.14662 z m 56.6531,-33.4825 -56.6531,56.66083 0,-8.18684 58.6618,-58.6515 26.6085,0 0,120.16645 151.6505,0 60.0892,60.10369 122.1871,0 31.4635,-31.47287 0,-62.09274 -32.4721,-32.4704 -91.1168,91.12786 -8.1458,0 99.2626,-99.29165 42.6436,42.64374 0,58.07371 -43.6608,43.65563 -118.1612,0 -60.0807,-60.09946 -163.8221,0 0,-120.16645 -18.4542,0 z m 2.0258,-40.22725 56.6446,0 0,120.18696 121.5973,0 60.0721,60.09603 122.1871,0 1.436,-1.42573 0,-62.0868 -2.4446,-2.4266 -61.0637,61.06787 -8.1458,0 69.2266,-69.25211 12.5905,12.6042 0,58.08389 -13.6077,13.60598 -118.1612,0 -60.0807,-60.09344 -133.7946,0 0,-120.17672 -48.4817,0 -56.6531,56.64796 0,-8.15091 58.6789,-58.68058 z m 359.5096,54.23332 -120.1614,120.17328 -57.6617,-57.64208 0,-103.14829 59.3627,-59.38235 -3.4361,-3.42238 -55.9266,55.93682 0,-8.16381 44.3361,-44.3404 -3.4361,-3.43944 -40.9,40.92471 0,-8.16288 29.3095,-29.32239 -3.4361,-3.43261 -25.8734,25.87681 0,-8.17405 14.2915,-14.28038 -3.4446,-3.42238 -10.8469,10.85791 0,-54.20934 -4.8635,0 0,207.8753 -10.1631,0 0,-207.8787 -4.8635,0 0,207.8787 -10.163,0 0,-207.8787 -4.855,0 0,207.8787 -10.1887,0 0,-207.8753 -4.8379,0 0,207.8753 -10.1716,0 0,-207.87276 -4.855,0 0,207.87276 -55.2427,0 0,-120.18355 -63.5083,0 -56.6531,56.6676 0,-54.22983 -4.8635,0 0,119.16468 -58.6789,58.65746 -58.0634,0 -58.6618,-58.65746 0,-119.16468 -4.8464,0 -0.013,119.18772 -58.67884,58.64817 -56.62746,0 0,-55.23852 57.6617,0 0,-4.85159 -61.08071,0 -1.436,1.43509 0,62.07061 1.436,1.43509 62.06367,0 59.08914,-59.09085 9.1801,9.18517 -10.1887,-0.006 -60.08066,60.07301 -58.08054,0 -13.60768,-13.59573 0,-58.06351 13.60768,-13.60589 59.0806,0 0,-4.85166 -61.08071,0 -16.44548,16.42757 0,62.10299 16.44548,16.45403 62.07223,0 60.09778,-60.08922 13.0179,0 10.1715,10.16304 -25.1981,0 -60.08066,60.08319 -58.08054,0 -28.60861,-28.61034 0,-58.08389 28.60861,-28.63084 59.0977,0 0,-4.84733 -61.09781,0 -31.47206,31.47887 0,62.07655 31.45496,31.4857 62.09787,0 60.08924,-60.11654 28.0445,0.013 10.163,10.1733 -40.2162,0 -60.08066,60.10378 -58.08054,0 -43.66084,-43.67631 0,-58.06938 43.66084,-43.65659 59.0977,0.0213 0,-4.85164 -61.09781,0 -46.49862,46.47728 0,62.09706 46.49862,46.51059 62.08077,0 60.08924,-60.11663 43.071,0.013 10.1802,10.18356 -55.277,0 -60.06356,60.06015 -58.08054,0 -58.66177,-58.64729 0,-58.07369 58.66177,-58.6976 59.0977,0.013 0,-4.85843 -61.09781,0 -61.5081,61.50899 0,62.09706 61.5081,61.51494 62.08077,0 60.10634,-60.08668 58.0634,0 0.013,0.006 62.0808,0 60.8072,-60.79435 0,0 55.9522,-55.9565 0,116.74402 181.6865,0 60.0721,60.08065 122.2042,0 61.5166,-61.4927 0,-62.1201 -62.5252,-62.50386" />
    <path
       inkscape:connector-curvature="0"
       style="fill:#7b7979;fill-opacity:1;fill-rule:nonzero;stroke:none;display:inline"
       id="path64"
       d="m 678.79596,435.64023 -60.09344,60.08321 3.41642,3.43269 60.0858,-60.08327 -3.40878,-3.43263" />
    <path
       inkscape:connector-curvature="0"
       style="fill:#7b7979;fill-opacity:1;fill-rule:nonzero;stroke:none;display:inline"
       id="path66"
       d="m 622.12153,514.18099 60.08321,-60.08327 -3.41561,-3.42242 -60.09603,60.05671 3.42843,3.44898" />
    <path
       inkscape:connector-curvature="0"
       style="fill:#7b7979;fill-opacity:1;fill-rule:nonzero;stroke:none;display:inline"
       id="path68"
       d="m 618.70252,525.77317 3.41642,3.43268 60.09263,-60.0935 -3.42838,-3.42929 -60.08067,60.09011" />
    <path
       inkscape:connector-curvature="0"
       style="fill:#7b7979;fill-opacity:1;fill-rule:nonzero;stroke:none;display:inline"
       id="path70"
       d="m 678.78572,480.68831 -60.0892,60.10971 3.42845,3.43953 60.0935,-60.11655 -3.43275,-3.43269" />
    <path
       inkscape:connector-curvature="0"
       style="fill:#7b7979;fill-opacity:1;fill-rule:nonzero;stroke:none;display:inline"
       id="path72"
       d="m 622.12497,559.25216 60.0866,-60.09603 -3.42838,-3.43269 -60.08667,60.09944 3.42845,3.42928" />
    <path
       inkscape:connector-curvature="0"
       style="fill:#7b7979;fill-opacity:1;fill-rule:nonzero;stroke:none;display:inline"
       id="path74"
       d="m 1339.7628,375.56724 -60.0892,60.06266 3.4446,3.43277 60.0636,-60.07984 -3.419,-3.41559" />
    <path
       inkscape:connector-curvature="0"
       style="fill:#7b7979;fill-opacity:1;fill-rule:nonzero;stroke:none;display:inline"
       id="path76"
       d="m 1339.7628,390.57842 -60.0892,60.09694 3.4446,3.41211 60.0636,-60.07294 -3.419,-3.43611" />
    <path
       inkscape:connector-curvature="0"
       style="fill:#7b7979;fill-opacity:1;fill-rule:nonzero;stroke:none;display:inline"
       id="path78"
       d="m 1339.7628,405.60672 -60.0892,60.07634 3.4446,3.43952 60.0636,-60.09684 -3.419,-3.41902" />
    <path
       inkscape:connector-curvature="0"
       style="fill:#7b7979;fill-opacity:1;fill-rule:nonzero;stroke:none;display:inline"
       id="path80"
       d="m 1339.7628,420.61872 -60.0892,60.07984 3.4446,3.43269 60.0636,-60.07725 -3.419,-3.43528" />
    <path
       inkscape:connector-curvature="0"
       style="fill:#7b7979;fill-opacity:1;fill-rule:nonzero;stroke:none;display:inline"
       id="path82"
       d="m 1283.1182,499.14585 60.0636,-60.08318 -3.419,-3.43277 -60.0892,60.07644 3.4446,3.43951" />
  </g>
</svg>
