<?xml version="1.0" encoding="UTF-8" standalone="no"?>
<!-- Created with Inkscape (http://www.inkscape.org/) -->

<svg
   xmlns:dc="http://purl.org/dc/elements/1.1/"
   xmlns:cc="http://creativecommons.org/ns#"
   xmlns:rdf="http://www.w3.org/1999/02/22-rdf-syntax-ns#"
   xmlns:svg="http://www.w3.org/2000/svg"
   xmlns="http://www.w3.org/2000/svg"
   xmlns:sodipodi="http://sodipodi.sourceforge.net/DTD/sodipodi-0.dtd"
   xmlns:inkscape="http://www.inkscape.org/namespaces/inkscape"
   width="1700"
   height="758.08618"
   id="svg3113"
   version="1.1"
   inkscape:version="0.48.3.1 r9886"
   sodipodi:docname="soixante_plein.svg">
  <defs
     id="defs3115" />
  <sodipodi:namedview
     id="base"
     pagecolor="#ffffff"
     bordercolor="#666666"
     borderopacity="1.0"
     inkscape:pageopacity="0.0"
     inkscape:pageshadow="2"
     inkscape:zoom="0.35"
     inkscape:cx="588.66349"
     inkscape:cy="225.75738"
     inkscape:document-units="px"
     inkscape:current-layer="layer1"
     showgrid="false"
     fit-margin-top="0"
     fit-margin-left="0"
     fit-margin-right="0"
     fit-margin-bottom="0"
     inkscape:window-width="854"
     inkscape:window-height="615"
     inkscape:window-x="1855"
     inkscape:window-y="323"
     inkscape:window-maximized="0" />
  <metadata
     id="metadata3118">
    <rdf:RDF>
      <cc:Work
         rdf:about="">
        <dc:format>image/svg+xml</dc:format>
        <dc:type
           rdf:resource="http://purl.org/dc/dcmitype/StillImage" />
        <dc:title></dc:title>
      </cc:Work>
    </rdf:RDF>
  </metadata>
  <g
     inkscape:label="Layer 1"
     inkscape:groupmode="layer"
     id="layer1"
     transform="translate(0.14288,-0.03338164)">
    <path
       style="fill:#2d2c2e;fill-opacity:1;fill-rule:nonzero;stroke:none"
       d="m 167.69598,182.48688 c 0,-18.22205 0,-36.44409 0,-54.66614 18.91212,0 37.82425,0 56.73637,0 20.73233,20.39229 41.46466,40.78458 62.19699,61.17687 0,-22.11248 0,-44.22497 0,-66.33745 -20.26228,-20.00225 -40.52455,-40.004488 -60.78683,-60.006738 -20.63232,0 -41.26463,0 -61.89695,0 -20.70233,20.70232 -41.40465,41.404648 -62.10698,62.106968 0,20.39229 0,40.78459 0,61.17688 20.58231,20.59231 41.16463,41.18463 61.74694,61.77694 19.65221,0 39.30441,0 58.95662,0 0,28.32318 0,56.64637 0,84.96955 -23.91269,0 -47.82537,0 -71.73806,0 -30.00337,-30.00337 -60.00674,-60.00675 -90.01011,-90.01012 -20.31228,0 -40.62457,0 -60.93685,0 0,21.56242 0,43.12485 0,64.68727 19.5322,0 39.06439,0 58.59659,0 30.08338,30.08338 60.16676,60.16676 90.25014,90.25014 25.55287,0 51.10574,0 76.65861,0 20.58231,-20.59231 41.16463,-41.18463 61.74694,-61.77694 0,-30.74345 0,-61.48691 0,-92.23036 -20.37229,-20.37229 -40.74458,-40.74458 -61.11687,-61.11687 -19.43218,0 -38.86437,0 -58.29655,0 z"
       id="path14"
       inkscape:connector-curvature="0" />
    <path
       inkscape:connector-curvature="0"
       id="path18"
       style="fill:#2d2c2e;fill-opacity:1;fill-rule:nonzero;stroke:none"
       d="m 591.28957,0.03338164 -64.26722,64.26722036 0,67.267558 64.1172,-64.117208 0.15002,-67.41757036 z" />
    <path
       inkscape:connector-curvature="0"
       id="path22"
       style="fill:#2d2c2e;fill-opacity:1;fill-rule:nonzero;stroke:none"
       d="m 381.93804,278.76469 54.39611,0 0,53.91607 -54.87616,0 0.48005,-53.91607 z m 479.57389,60.00674 54.39611,0 0,53.91606 -54.84616,0 0.45005,-53.91606 z m 599.61727,-180.02022 51.5759,0 -52.0559,52.02585 0.48,-52.02585 z m -1020.59457,240.02697 61.4169,-61.4169 0,-118.60332 24.60276,0 0,177.43993 63.06709,63.06709 134.4151,-134.44511 133.72502,133.72502 122.14373,0 121.18357,-121.18361 0,-118.60332 54.8462,0 0,179.42015 64.1172,0 59.6466,-59.6467 60.2469,0 58.8365,-58.83662 119.8935,119.89348 60.3368,-60.33678 0,-61.65693 -3.2703,-3.27037 -57.6665,57.63648 -56.0164,-56.01629 119.6835,-119.68345 -62.497,-62.497028 -62.167,0 -60.7568,60.756828 0,60.36679 -54.5162,54.48612 0,-112.27262 58.3867,-58.356548 -3.3004,-3.27038 -55.7763,0 0,-59.55669 -65.4073,0 0,238.856838 -54.1561,54.15609 0,-113.44275 -61.867,-61.89695 -123.5239,0 0,180.7403 -55.08614,55.0862 0,-116.29307 -123.76391,0 -58.83661,58.83661 -41.49466,-41.46466 73.23823,-73.26823 -2.91033,-2.91032 -59.76672,0 -43.83492,43.80491 -42.66479,-42.63479 -58.59659,0 -3.99045,3.96045 71.49804,71.49803 -98.47106,98.47107 0,-235.70649 -93.64053,0 -59.6467,59.6467 -60.24677,0 -61.17688,61.17688 0,62.82706 61.4169,61.4169 62.34702,0 z" />
    <path
       inkscape:connector-curvature="0"
       id="path26"
       style="fill:#2d2c2e;fill-opacity:1;fill-rule:nonzero;stroke:none"
       d="m 859.18067,513.16603 -122.8338,0 0,121.42364 -54.60614,54.60614 0,-116.02304 -64.47724,0 -119.77346,119.77346 -56.49634,0 0,-54.12608 58.14653,-0.48006 0,-65.16732 -60.93685,0 -61.89695,61.89696 0,61.38689 61.65693,61.65693 62.10697,0 116.38308,-116.38308 0,116.14305 63.63715,0 59.55669,-59.52668 61.86695,0 0,-120.01349 57.66648,0 0,-65.16732 z" />
    <path
       inkscape:connector-curvature="0"
       id="path30"
       style="fill:#2d2c2e;fill-opacity:1;fill-rule:nonzero;stroke:none"
       d="m 681.5037,490.66351 0.15002,-67.41757 -64.26722,64.26722 0,67.26755 64.1172,-64.1172 z" />
    <path
       inkscape:connector-curvature="0"
       id="path34"
       style="fill:#2d2c2e;fill-opacity:1;fill-rule:nonzero;stroke:none"
       d="m 1636.22,692.95224 -51.5758,0 52.0559,-52.02585 -0.4801,52.02585 z m 1.9202,-120.07349 -118.8733,118.90336 -57.4565,-57.42645 0,-102.91157 59.1967,-59.16664 -4.1105,-4.11047 -55.7763,0 0,-42.66479 -65.1673,0 0,207.20328 -54.8462,0 0,-119.53343 -64.2372,0 -55.7762,55.77627 0,-53.43601 -64.6873,0 0,117.67322 -54.8462,0 0,-117.67322 -65.1673,0 0,118.60333 -58.59658,58.59658 -56.73637,0 0,-54.36611 57.66648,0 0,-65.16732 -60.93685,0 -60.96685,60.93685 0,62.347 61.65693,61.65693 61.17687,0 59.88677,-59.88673 120.1335,0 116.6831,-116.68311 0,116.32307 180.5303,0 59.7967,59.76672 122.1137,0 61.0568,-61.05686 0,-61.98697 -61.7169,-61.71693 z" />
    <g
       id="g36"
       transform="matrix(30.003371,0,0,-30.003371,1277.0016,494.29692)">
      <path
         d="M 0,0 2.137,2.137 2.142,4.384 0,2.242 0,0 z"
         style="fill:#2d2c2e;fill-opacity:1;fill-rule:nonzero;stroke:none"
         id="path38"
         inkscape:connector-curvature="0" />
    </g>
  </g>
</svg>
