<?xml version="1.0" encoding="UTF-8" standalone="no"?>
<!-- Created with Inkscape (http://www.inkscape.org/) -->

<svg
   xmlns:dc="http://purl.org/dc/elements/1.1/"
   xmlns:cc="http://creativecommons.org/ns#"
   xmlns:rdf="http://www.w3.org/1999/02/22-rdf-syntax-ns#"
   xmlns:svg="http://www.w3.org/2000/svg"
   xmlns="http://www.w3.org/2000/svg"
   xmlns:sodipodi="http://sodipodi.sourceforge.net/DTD/sodipodi-0.dtd"
   xmlns:inkscape="http://www.inkscape.org/namespaces/inkscape"
   version="1.1"
   width="800.46265"
   height="354.6951"
   id="svg3841"
   inkscape:version="0.48.3.1 r9886"
   sodipodi:docname="soixante4.svg">
  <sodipodi:namedview
     pagecolor="#ffffff"
     bordercolor="#666666"
     borderopacity="1"
     objecttolerance="10"
     gridtolerance="10"
     guidetolerance="10"
     inkscape:pageopacity="0"
     inkscape:pageshadow="2"
     inkscape:window-width="1920"
     inkscape:window-height="1055"
     id="namedview37"
     showgrid="false"
     inkscape:zoom="1.4803938"
     inkscape:cx="677.74641"
     inkscape:cy="243.24106"
     inkscape:window-x="1600"
     inkscape:window-y="0"
     inkscape:window-maximized="1"
     inkscape:current-layer="svg3841"
     fit-margin-top="0"
     fit-margin-left="0"
     fit-margin-right="0"
     fit-margin-bottom="0" />
  <defs
     id="defs3843" />
  <metadata
     id="metadata3846">
    <rdf:RDF>
      <cc:Work
         rdf:about="">
        <dc:format>image/svg+xml</dc:format>
        <dc:type
           rdf:resource="http://purl.org/dc/dcmitype/StillImage" />
        <dc:title />
      </cc:Work>
    </rdf:RDF>
  </metadata>
  <g
     transform="matrix(3.211382,0,0,3.211382,-1324.7396,-2247.9502)"
     id="layer1">
    <path
       d="m 434.33523,748.81578 11.27488,0 0.2115,-0.21038 0,-13.46975 -0.2095,-0.2095 -8.78562,0 -8.58213,-8.582 0,-8.49263 8.58213,-8.58187 8.49162,0 8.68513,8.68537 0.50287,-0.5005 -0.002,0 -8.89212,-8.89237 -9.08012,0 -8.99513,8.99437 0,9.082 8.99513,8.99563 8.57962,0 0,12.47125 -10.48287,0 -13.18025,-13.17925 -8.93313,0 0,0.708 8.63875,0 13.18162,13.18163"
       id="path22"
       style="fill:#7b7979;fill-opacity:1;fill-rule:nonzero;stroke:none;display:inline"
       inkscape:connector-curvature="0" />
    <path
       d="m 434.33573,751.01265 11.27875,0 2.40438,-2.40675 0,-13.47513 -2.40438,-2.40187 -8.78662,0 -6.38525,-6.38425 0,-8.49175 6.38287,-6.3845 8.49363,0 8.68413,8.68437 0.50287,-0.5005 -0.003,0 -8.89163,-8.89137 -9.07913,0 -6.79787,6.79712 0,9.07913 6.79787,6.80025 8.78663,0 1.98825,1.98875 0,12.88675 -1.98575,1.98925 -10.69288,0 -13.18212,-13.17975 -8.93262,0 0,0.70812 8.64012,0 13.18162,13.18213"
       id="path24"
       style="fill:#7b7979;fill-opacity:1;fill-rule:nonzero;stroke:none;display:inline"
       inkscape:connector-curvature="0" />
    <path
       d="m 434.33573,753.2099 11.27776,0 4.60262,-4.60213 0,-13.47499 -4.6045,-4.60263 -8.78613,0 -4.18612,-4.186 0,-8.49313 4.18612,-4.18637 8.49363,0 8.685,8.68337 0.5005,-0.50049 -8.89112,-8.89163 -9.08051,0 -4.60212,4.60012 0,9.0835 4.60212,4.59963 8.78613,0 4.1855,4.186 0,12.88725 -4.1855,4.189 -10.69038,0 -13.18312,-13.18263 -8.93163,0 0,0.70901 8.63963,0 13.18212,13.18212"
       id="path26"
       style="fill:#7b7979;fill-opacity:1;fill-rule:nonzero;stroke:none;display:inline"
       inkscape:connector-curvature="0" />
    <path
       d="m 434.33523,755.40465 11.27788,0 6.79825,-6.79775 0,-13.47325 -6.79825,-6.79775 -8.78763,0 -1.98975,-1.98975 0,-8.49513 1.98975,-1.98975 8.49463,0 8.68313,8.685 0.50287,-0.5005 -0.002,0 -8.89062,-8.89299 -9.08013,0 -2.40574,2.40574 0,9.08 2.40274,2.40588 8.79013,0 6.38225,6.38175 0,12.88775 -6.38225,6.38225 -10.69187,0 -13.18075,-13.18012 -8.9335,0 0,0.70799 8.63862,0 13.18262,13.18063"
       id="path28"
       style="fill:#7b7979;fill-opacity:1;fill-rule:nonzero;stroke:none;display:inline"
       inkscape:connector-curvature="0" />
    <path
       d="m 437.03399,726.13765 0,-8.08063 8.28612,0 8.684,8.6865 0.501,-0.5005 -8.892,-8.892 -9.08063,0 -0.207,0.207 c -4.9e-4,5e-4 -4.9e-4,9.0815 -4.9e-4,9.0815 l 0.20749,0.207 8.78763,0 8.57912,8.57863 0,12.88775 -8.57912,8.582 -10.69187,0 -13.18075,-13.18363 -8.93351,0 0,0.7095 8.64063,0 13.18062,13.18025 11.27788,0 8.995,-8.99275 0,-13.47512 -8.995,-8.9955 -8.57912,0"
       id="path30"
       style="fill:#7b7979;fill-opacity:1;fill-rule:nonzero;stroke:none;display:inline"
       inkscape:connector-curvature="0" />
    <path
       d="m 476.52661,748.22302 -8.07862,0 0,-8.08 8.07862,0 0,8.08 z m 52.724,0.49901 0,1.19487 -6.83375,-6.832 0.59875,-0.59813 6.235,6.23526 z m 0,6.59237 0,1.2045 -10.1325,-10.13525 0.6025,-0.6025 9.53,9.53325 z m 0,-2.19688 0,1.19538 -9.02875,-9.03275 0.595,-0.59563 8.43375,8.433 z m 0,-1.00087 -7.9325,-7.93313 0.5975,-0.59725 7.335,7.3345 0,1.19588 z m 9.495,4.893 0,-8.07913 8.08,0 0,8.07913 -8.08,0 z m 87.8775,-34.44038 7.57,0 -7.57,7.57225 0,-7.57225 z m -149.597,35.14938 8.99512,-8.99563 0,-17.36712 3.68513,0 0,26.15375 9.142,9.14112 19.7685,-19.76612 10.93875,10.94137 0.005,-0.005 8.685,8.68312 8.58,0 0,0.003 9.28625,0 17.78375,-17.78425 0,-17.36862 8.07625,0 0.002,26.36475 9.2875,0 8.78875,-8.78863 8.78625,0 8.64,-8.63762 17.57625,17.57125 9.0375,-9.03712 -0.5,-0.50138 -0.002,0 -8.535,8.5365 -17.0725,-17.07225 8.6425,-8.64063 0,-0.002 8.93,-8.93113 -0.35625,-0.35599 -9.0775,0 -0.2075,0.20749 0,8.78375 -8.9375,8.93838 0,5e-4 -8.4325,8.43213 -8.785,0 -8.78875,8.78762 -8.28625,0 0.002,-26.15425 -0.2075,-0.207 -9.28875,0 0,17.78125 -17.37125,17.36812 -8.28375,0 0,-17.57574 c 0,5e-4 -9.28625,5e-4 -9.28625,5e-4 l -0.20875,0.20799 0,9.08063 0.20875,0.208 8.57875,0 0,1.48637 -8.28625,0 -1.99,-1.98737 0,-8.49513 1.99,-1.98974 10.48375,0 0,17.57662 7.08875,0 15.58875,-15.58688 0,-19.56349 10.48125,0 1.99,1.98974 0,24.37213 7.09,0 8.79125,-8.78812 8.78375,0 15.58875,-15.58638 0,-8.78513 1.99,-1.99075 8.48875,0 1.8425,1.84225 -17.5725,17.57613 15.87875,15.88 9.0375,-9.03963 -0.5,-0.4995 -8.5375,8.53663 -14.87625,-14.8775 17.57375,-17.57363 -2.55125,-2.55375 -9.08,0 -2.405,2.40575 0,8.78563 -15.17,15.17087 -8.7875,0.002 -8.78875,8.78513 -6.08625,0 0,-23.956 -2.4075,-2.40525 -11.48375,0 0,19.979 -15.17375,15.16987 -6.08625,0 0,-17.57274 -11.48625,0 -2.40375,2.40287 0,9.082 2.40375,2.40275 8.58125,0 0,1.48838 -8.28625,0 -4.1875,-4.18463 0,-8.49513 4.1875,-4.1875 12.6775,0 0,17.57625 4.895,0 13.39125,-13.38875 0,-21.76125 12.67625,0 4.1875,4.1875 0,22.17488 4.895,0 8.79125,-8.78863 8.78375,0.002 13.38875,-13.39112 0,-8.78513 4.19,-4.188 8.49125,0 4.04,4.042 -17.57625,17.57363 13.6825,13.68212 9.0375,-9.037 -0.5,-0.5015 -8.5375,8.53563 -12.68125,-12.67925 17.57625,-17.57613 -4.74875,-4.74612 -9.0825,0 -4.59875,4.60062 0,8.78813 -12.97625,12.97312 -8.785,0 -8.78875,8.78563 -3.89125,0 0,-21.75875 -4.6025,-4.60063 -13.68125,0 0,22.17438 -12.97375,12.97313 -3.89375,0 0,-17.57376 -13.68125,0 -4.60125,4.60063 0,9.082 4.60125,4.60012 8.58125,0 0,1.48775 -8.28625,0 -6.385,-6.38137 0,-8.49263 6.385,-6.38475 14.875,0 0,17.57363 2.6975,0 11.195,-11.19138 0,-23.9585 14.8725,0 6.38625,6.38475 0,19.979 2.69625,0 8.78875,-8.7875 8.78625,0 11.19125,-11.19387 0,-8.78513 6.385,-6.38337 8.49125,0 6.24,6.23737 -17.57625,17.57363 11.485,11.48487 9.0375,-9.038 -0.5,-0.501 -8.5375,8.53663 -10.48375,-10.4825 17.57875,-17.57613 -6.94875,-6.94437 -9.0825,0 -6.79625,6.79887 0,8.78813 -10.77875,10.77587 -8.785,0 -8.78875,8.78763 -1.69375,0 0,-19.5635 -6.8,-6.79838 -15.87875,0 0,24.37213 -10.77625,10.77587 -1.69375,0 0,-17.57375 -15.88125,0 -6.79625,6.79788 0,9.082 6.79625,6.79825 8.58125,0 0,1.48537 -8.285,0 -8.58,-8.5795 0,-8.49275 8.5775,-8.58 17.07375,0 0,18.07813 9.4975,-9.49813 0,-26.15475 17.0725,0 8.57875,8.57863 0,18.28562 9.29,-9.2895 8.78625,0 8.99375,-8.99612 0,-8.78613 8.585,-8.57987 8.48875,0 8.4325,8.43487 -17.57125,17.57363 9.2875,9.28712 9.0375,-9.0375 -0.5,-0.49862 -8.5375,8.53612 -8.28875,-8.28712 17.5775,-17.57363 -9.1425,-9.14237 -9.08,0 -8.99625,8.99387 0,8.78863 -8.07375,8.07375 0,-16.56988 8.67875,-8.68137 -0.5,-0.5025 -8.17875,8.178 0,-1.19138 6.4875,-6.48412 -0.50375,-0.5025 -5.98375,5.98125 0,-1.19388 4.2875,-4.28612 -0.50125,-0.5 -3.78625,3.78375 0,-1.19488 2.09,-2.08762 -0.5,-0.5025 -1.59,1.58912 0,-10.12412 -0.71,0 0,34.79262 -1.4875,10e-4 0,-34.79487 -0.71,0 0,34.79487 -1.4875,3.8e-4 0,-34.794 -0.71,0 0,34.794 -1.48625,5e-4 0,-34.79575 -0.71125,0 0,34.79575 -1.48625,5e-4 0,-34.79625 -0.70875,0 0,35.00287 -8.0825,8.07813 0,-16.86475 -8.995,-8.99663 -18.07375,0 0,26.57038 -8.08125,8.079 0,-17.07275 -18.07375,0 -8.64125,8.63925 -6.08875,-6.08938 10.73375,-10.73337 -0.5,-0.501 -34.901,34.89737 -8.43263,-8.43212 0,-26.56788 -4.8935,0 -8.79,8.78713 -8.78525,0 -0.208,0.209 0,9.07812 0.20763,0.207 9.08,0 0.2095,-0.20937 0,-8.78575 1.48775,-1.48825 0,9.9825 -1.98875,1.98925 -8.49513,0 -1.98925,-1.98925 0,-8.49275 1.98925,-1.98925 8.78813,0 8.78612,-8.78763 6.08988,0 0,28.35063 6.94525,6.94575 33.2025,-33.20212 -0.49875,-0.50101 -0.002,0 -32.70125,32.70125 -6.23625,-6.23687 0,-28.7665 -7.09238,0 -8.78562,8.7875 -8.78813,0 -2.40525,2.40525 0,9.07863 2.40525,2.40537 9.08113,0 2.40275,-2.40288 0,-10.98487 1.48887,-1.48825 0,12.17862 -4.18562,4.18563 -8.49513,0 -4.185,-4.18563 0,-8.49599 4.1875,-4.18463 8.78613,0 8.78662,-8.78662 8.28713,0 0,30.54637 4.748,4.7505 31.00625,-31.00587 -0.50125,-0.50101 -30.505,30.502 -4.0385,-4.03812 0,-30.96238 -9.29013,0 -8.78662,8.78613 -8.788,0 -4.60163,4.6035 0,9.07912 4.60163,4.60163 9.0815,0 4.60112,-4.60163 0,-13.18112 1.48825,-1.48775 0,14.37737 -6.38337,6.38038 -8.49113,0 -6.38525,-6.38275 0,-8.49425 6.38225,-6.38275 8.78713,0 8.78662,-8.78463 10.48538,-0.002 0,32.74612 2.54975,2.55025 28.81225,-28.80862 -0.50125,-0.5 -28.311,28.30712 -1.84125,-1.84413 0,-33.15924 -11.48638,0 -8.78712,8.78662 -8.78663,0.002 -6.79925,6.79637 0,9.08001 6.79925,6.79837 9.07963,0 6.79887,-6.79837 0,-15.37638 1.48725,-1.48788 0,16.57225 -8.57962,8.57963 -8.49213,0 -8.58012,-8.57963 0,-8.49462 8.58012,-8.5795 8.78513,0 8.78962,-8.78813 12.67813,0 0,34.94188 0.3545,0.3545 26.61475,-26.61137 -0.5,-0.50088 -6.34125,6.33975 -6.33888,-6.34175 -0.50337,0.50288 6.341,6.34037 -0.59625,0.59625 -7.43863,-7.438 -0.503,0.5 7.44,7.43938 -0.59712,0.59775 c -3.79738,-3.79551 -8.53763,-8.53863 -8.53763,-8.53863 l -0.5005,0.50288 c 0,0 4.74075,4.74124 8.53663,8.53712 l -0.59725,0.59675 -9.63613,-9.63675 -0.5005,0.50288 9.63525,9.63537 -0.604,0.603 -10.52637,-10.52938 -0.5,0.50301 10.52687,10.52687 -14.51962,14.517 0,-34.64937 -13.68163,0 -8.78762,8.78762 -8.78563,0 -8.99512,8.99562 0,9.0805 8.99325,8.99563 9.0805,0"
       id="path32"
       style="fill:#7b7979;fill-opacity:1;fill-rule:nonzero;stroke:none;display:inline"
       inkscape:connector-curvature="0" />
    <path
       d="m 499.09886,700.49715 -0.4995,-0.5025 -8.78813,8.78875 0.50201,0.50125 8.78562,-8.7875"
       id="path34"
       style="fill:#7b7979;fill-opacity:1;fill-rule:nonzero;stroke:none;display:inline"
       inkscape:connector-curvature="0" />
    <path
       d="m 499.09886,702.69465 -0.4995,-0.5025 -8.78813,8.78875 0.50201,0.49875 8.78562,-8.785"
       id="path36"
       style="fill:#7b7979;fill-opacity:1;fill-rule:nonzero;stroke:none;display:inline"
       inkscape:connector-curvature="0" />
    <path
       d="m 499.09886,704.88965 -0.4995,-0.5 -8.78813,8.78625 0.50201,0.50125 8.78562,-8.7875"
       id="path38"
       style="fill:#7b7979;fill-opacity:1;fill-rule:nonzero;stroke:none;display:inline"
       inkscape:connector-curvature="0" />
    <path
       d="m 499.09886,707.08715 -0.4995,-0.50125 -8.78813,8.787 0.50201,0.5025 8.78562,-8.78825"
       id="path40"
       style="fill:#7b7979;fill-opacity:1;fill-rule:nonzero;stroke:none;display:inline"
       inkscape:connector-curvature="0" />
    <path
       d="m 499.09886,709.28465 -0.4995,-0.50125 -8.78813,8.78725 0.50201,0.502 8.78562,-8.788"
       id="path42"
       style="fill:#7b7979;fill-opacity:1;fill-rule:nonzero;stroke:none;display:inline"
       inkscape:connector-curvature="0" />
    <path
       d="m 538.39311,783.3724 -9.1425,0 0,17.57087 -8.5825,0.003 -8.7845,8.78525 -8.28575,0 0,-18.07475 -18.07763,18.07475 -8.49162,0 -8.582,-8.58163 0,-8.48975 8.582,-8.5815 8.63862,0.002 0,-0.709 -8.93312,0 -8.99513,8.99125 0,9.08112 8.99513,9 9.08062,0 17.07325,-17.07625 0,17.07625 9.2895,0 8.78563,-8.79112 8.9975,0 0,-17.57463 8.4325,0.002 0,-0.709"
       id="path44"
       style="fill:#7b7979;fill-opacity:1;fill-rule:nonzero;stroke:none;display:inline"
       inkscape:connector-curvature="0" />
    <path
       d="m 512.17698,808.24653 8.78613,-8.79151 6.8,0.002 0,-17.57325 10.63125,0 0,-0.7095 -11.34125,0 0,17.57138 -6.38375,0.002 -8.78675,8.78962 -6.08988,0 0.002,-17.57625 -2.69925,0 -17.57625,17.57625 -8.49212,0 -6.38375,-6.38725 0,-8.49212 6.38375,-6.38438 8.64262,0.002 0,-0.7095 -8.93712,0 -6.79688,6.79688 0,9.08112 6.79688,6.80176 9.08112,0 17.57613,-17.57576 1.69487,0 0,17.57576 7.09175,0"
       id="path46"
       style="fill:#7b7979;fill-opacity:1;fill-rule:nonzero;stroke:none;display:inline"
       inkscape:connector-curvature="0" />
    <path
       d="m 485.66923,787.76553 0,-0.002 -8.93412,0 -4.6025,4.6035 0,9.07812 4.6025,4.6045 9.08112,0 17.57513,-17.57724 3.89063,0 0,17.57724 4.89362,0 8.79,-8.79149 4.6025,0.002 -0.002,-17.57475 12.8275,0 0,-0.7065 -13.53625,-0.003 0,17.57513 -4.185,0 -8.78737,8.78662 -3.8935,0 0,-17.57412 -4.89351,0 -17.57524,17.57412 -8.49563,0 -4.1845,-4.184 0,-8.49425 4.1845,-4.18699 8.64262,0 0,-0.7065"
       id="path48"
       style="fill:#7b7979;fill-opacity:1;fill-rule:nonzero;stroke:none;display:inline"
       inkscape:connector-curvature="0" />
    <path
       d="m 477.02661,790.6684 8.64062,0.002 0,-0.7095 -8.9345,0 -2.40187,2.40238 0,9.082 2.40187,2.40625 9.08201,0 17.57562,-17.57813 6.0875,0 0.002,17.57813 2.69538,0 8.78875,-8.7875 2.40375,0 0,-17.57625 15.025,0 0,-0.709 -15.7325,0 0,17.57575 -1.99125,0 -8.78487,8.78512 -1.69725,0 0,-17.57325 -7.09025,0 -17.57675,17.57625 -8.49363,0 -1.98875,-1.99125 0,-8.49125 1.98875,-1.99212"
       id="path50"
       style="fill:#7b7979;fill-opacity:1;fill-rule:nonzero;stroke:none;display:inline"
       inkscape:connector-curvature="0" />
    <path
       d="m 538.39436,774.5844 -17.9325,-0.002 0,17.78175 -8.07687,8.08012 0,-17.07525 -9.28951,0 -17.57575,17.57575 -8.28612,0 0,-8.07712 8.43562,0 0,-0.7095 -8.93562,0 -0.207,0.206 0,9.085 0.20612,0.205 9.0815,0 17.57513,-17.57612 8.28625,0 0,18.07525 9.49625,-9.49226 0,-17.36962 17.2225,0 0,-0.7065"
       id="path52"
       style="fill:#7b7979;fill-opacity:1;fill-rule:nonzero;stroke:none;display:inline"
       inkscape:connector-curvature="0" />
    <path
       d="m 566.59561,774.9369 0,17.72125 6.8,6.79775 9.07875,0 6.8025,-6.79775 0,-17.72125 -0.70875,0 -0.002,17.42675 -6.38375,6.38425 -8.49375,0 -6.38375,-6.38425 0,-17.42675 -0.70875,0"
       id="path54"
       style="fill:#7b7979;fill-opacity:1;fill-rule:nonzero;stroke:none;display:inline"
       inkscape:connector-curvature="0" />
    <path
       d="m 568.79311,774.9384 0,17.71975 4.6025,4.6005 9.07875,0 4.605,-4.59813 0,-17.72212 -0.71,0 0,17.42825 -4.19,4.184 -8.49125,0 -4.1875,-4.188 0.002,-17.42425 -0.71,0"
       id="path56"
       style="fill:#7b7979;fill-opacity:1;fill-rule:nonzero;stroke:none;display:inline"
       inkscape:connector-curvature="0" />
    <path
       d="m 570.99061,774.9384 0,17.72062 2.4025,2.40538 9.08125,0 2.4075,-2.40538 0,-17.72062 -0.7075,0 -0.002,17.42675 -1.9925,1.99125 -8.49125,0 -1.99,-1.99125 0,-17.42675 -0.7075,0"
       id="path58"
       style="fill:#7b7979;fill-opacity:1;fill-rule:nonzero;stroke:none;display:inline"
       inkscape:connector-curvature="0" />
    <path
       d="m 573.19061,774.9384 -0.002,17.72212 0.205,0.20663 9.07875,0 0.21,-0.2115 0,-17.71725 -0.7075,0 0,17.21925 -8.07875,0 0.003,-17.21925 -0.7075,0"
       id="path60"
       style="fill:#7b7979;fill-opacity:1;fill-rule:nonzero;stroke:none;display:inline"
       inkscape:connector-curvature="0" />
    <path
       d="m 661.06061,801.15027 -8.57875,8.57963 -17.285,0 -8.78375,-8.78462 -26.155,0 0,-18.07963 -8.78625,8.789 0,-1.19375 8.57625,-8.57812 1.69625,0 0.002,17.57462 24.37,0 8.79,8.78813 17.86875,0 6.79625,-6.79688 0,-9.0835 -6.94375,-6.94575 -15.5225,15.52387 -1.19125,0 16.71375,-16.72025 8.4325,8.43601 0,8.49124 z m -16.35875,-0.207 7.5725,-7.57375 0,7.57375 -7.5725,0 z m -53.23,-14.87299 8.57875,-8.58213 6.08875,0 0,17.57712 19.9775,0 8.79,8.78663 17.86875,0 2.40375,-2.40475 0,-9.0835 -2.55125,-2.55125 -11.1275,11.13087 -1.19125,0 12.31875,-12.32325 4.03875,4.039 0,8.49276 -4.185,4.18549 -17.2825,0 -8.78625,-8.78662 -21.76125,0 0,-17.57325 -4.895,0 -8.285,8.28425 0,-1.19137 z m 8.285,-4.89651 -8.285,8.28613 0,-1.19725 8.57875,-8.57725 3.89125,0 0,17.57325 22.1775,0 8.7875,8.78962 17.86875,0 4.60125,-4.60262 0,-9.0805 -4.74875,-4.7485 -13.325,13.32662 -1.19125,0 14.51625,-14.5205 6.23625,6.23626 0,8.49275 -6.385,6.38424 -17.28,0 -8.78625,-8.789 -23.9575,0 0,-17.57325 -2.69875,0 z m 0.29625,-5.88287 8.28375,0 0,17.57625 17.7825,0 8.785,8.7885 17.86875,0 0.21,-0.2085 0,-9.07963 -0.3575,-0.35487 -8.93,8.93062 -1.19125,0 10.12375,-10.12749 1.84125,1.84325 0,8.49424 -1.99,1.98975 -17.28,0 -8.78625,-8.78812 -19.56625,0 0,-17.57475 -7.09,0 -8.285,8.28425 0,-1.192 8.58125,-8.5815 z m 52.575,7.93113 -17.5725,17.57425 -8.4325,-8.42963 0,-15.0845 8.68125,-8.68413 -0.5025,-0.50049 -8.17875,8.18025 0,-1.19388 6.48375,-6.48438 -0.5025,-0.50299 -5.98125,5.98487 0,-1.19375 4.28625,-4.28813 -0.5025,-0.50199 -3.78375,3.78425 0,-1.19538 2.09,-2.08838 -0.50375,-0.50049 -1.58625,1.58787 0,-7.92762 -0.71125,0 0,30.39987 -1.48625,0 0,-30.40037 -0.71125,0 0,30.40037 -1.48625,0 0,-30.40037 -0.71,0 0,30.40037 -1.49,0 0,-30.39987 -0.7075,0 0,30.39987 -1.4875,0 0,-30.3995 -0.71,0 0,30.3995 -8.07875,0 0,-17.57575 -9.2875,0 -8.285,8.28712 0,-7.93062 -0.71125,0 0,17.42675 -8.58125,8.57812 -8.49125,0 -8.57875,-8.57812 0,-17.42675 -0.70875,0 -0.002,17.43012 -8.58125,8.57676 -8.28125,0 0,-8.07813 8.4325,0 0,-0.7095 -8.9325,0 -0.21,0.20987 0,9.07726 0.21,0.20987 9.07625,0 8.64125,-8.6415 1.3425,1.34325 -1.49,-10e-4 -8.78625,8.78513 -8.49375,0 -1.99,-1.98825 0,-8.49126 1.99,-1.98974 8.64,0 0,-0.70951 -8.9325,0 -2.405,2.40238 0,9.082 2.405,2.40625 9.0775,0 8.78875,-8.7875 1.90375,0 1.4875,1.48625 -3.685,0 -8.78625,8.78662 -8.49375,0 -4.18375,-4.184 0,-8.49424 4.18375,-4.187 8.6425,0 0,-0.70888 -8.935,0 -4.6025,4.6035 0,9.07813 4.6,4.6045 9.08125,0 8.7875,-8.7915 4.10125,0.002 1.48625,1.48775 -5.88125,0 -8.78625,8.78963 -8.49375,0 -6.385,-6.38726 0,-8.49212 6.385,-6.38438 8.6425,0.003 0,-0.70951 -8.935,0 -6.8,6.79688 0,9.08113 6.8,6.80175 9.07875,0 8.7875,-8.79151 6.29875,0.002 1.48875,1.48925 -8.08375,0 -8.78375,8.78325 -8.49375,0 -8.57875,-8.57663 0,-8.49275 8.57875,-8.58399 8.6425,0.002 0,-0.7105 -8.935,0 -8.995,8.99513 0,9.08113 8.995,8.996 9.07875,0 8.79,-8.78713 8.49125,0 0.002,10e-4 9.07875,0 8.8925,-8.89062 0,0 8.1825,-8.18313 0,17.07275 26.57,0 8.785,8.78625 17.87125,0 8.99625,-8.99275 0,-9.0845 -9.14375,-9.14062"
       id="path62"
       style="fill:#7b7979;fill-opacity:1;fill-rule:nonzero;stroke:none;display:inline"
       inkscape:connector-curvature="0" />
    <path
       d="m 511.78148,763.70303 -8.78812,8.78662 0.49962,0.502 8.787,-8.78663 -0.4985,-0.50199"
       id="path64"
       style="fill:#7b7979;fill-opacity:1;fill-rule:nonzero;stroke:none;display:inline"
       inkscape:connector-curvature="0" />
    <path
       d="m 503.49336,775.1889 8.78662,-8.78663 -0.4995,-0.5005 -8.7885,8.78275 0.50138,0.50438"
       id="path66"
       style="fill:#7b7979;fill-opacity:1;fill-rule:nonzero;stroke:none;display:inline"
       inkscape:connector-curvature="0" />
    <path
       d="m 502.99336,776.88415 0.49962,0.502 8.788,-8.78813 -0.50137,-0.5015 -8.78625,8.78763"
       id="path68"
       style="fill:#7b7979;fill-opacity:1;fill-rule:nonzero;stroke:none;display:inline"
       inkscape:connector-curvature="0" />
    <path
       d="m 511.77998,770.2909 -8.7875,8.7905 0.50138,0.503 8.78813,-8.7915 -0.50201,-0.502"
       id="path70"
       style="fill:#7b7979;fill-opacity:1;fill-rule:nonzero;stroke:none;display:inline"
       inkscape:connector-curvature="0" />
    <path
       d="m 503.49386,781.78015 8.78712,-8.7885 -0.50137,-0.502 -8.78713,8.789 0.50138,0.5015"
       id="path72"
       style="fill:#7b7979;fill-opacity:1;fill-rule:nonzero;stroke:none;display:inline"
       inkscape:connector-curvature="0" />
    <path
       d="m 608.44186,754.9179 -8.7875,8.78362 0.50375,0.50201 8.78375,-8.78613 -0.5,-0.4995"
       id="path74"
       style="fill:#7b7979;fill-opacity:1;fill-rule:nonzero;stroke:none;display:inline"
       inkscape:connector-curvature="0" />
    <path
       d="m 608.44186,757.11315 -8.7875,8.78863 0.50375,0.49899 8.78375,-8.78512 -0.5,-0.5025"
       id="path76"
       style="fill:#7b7979;fill-opacity:1;fill-rule:nonzero;stroke:none;display:inline"
       inkscape:connector-curvature="0" />
    <path
       d="m 608.44186,759.3109 -8.7875,8.78562 0.50375,0.503 8.78375,-8.78862 -0.5,-0.5"
       id="path78"
       style="fill:#7b7979;fill-opacity:1;fill-rule:nonzero;stroke:none;display:inline"
       inkscape:connector-curvature="0" />
    <path
       d="m 608.44186,761.50627 -8.7875,8.78613 0.50375,0.502 8.78375,-8.78575 -0.5,-0.50238"
       id="path80"
       style="fill:#7b7979;fill-opacity:1;fill-rule:nonzero;stroke:none;display:inline"
       inkscape:connector-curvature="0" />
    <path
       d="m 600.15811,772.99015 8.78375,-8.78662 -0.5,-0.50201 -8.7875,8.78563 0.50375,0.503"
       id="path82"
       style="fill:#7b7979;fill-opacity:1;fill-rule:nonzero;stroke:none;display:inline"
       inkscape:connector-curvature="0" />
  </g>
</svg>
